<svg xmlns="http://www.w3.org/2000/svg" width="789.0721875000002" height="390.0"><line x1="30.0" x2="759.0721875000002" y1="45.0" y2="45.0" stroke="#1967d2" stroke-width="1" /><line x1="30.0" x2="759.0721875000002" y1="95.0" y2="95.0" stroke="#1967d2" stroke-width="1" /><line x1="30.0" x2="759.0721875000002" y1="145.0" y2="145.0" stroke="#1967d2" stroke-width="1" /><line x1="30.0" x2="759.0721875000002" y1="195.0" y2="195.0" stroke="#1967d2" stroke-width="1" /><line x1="30.0" x2="759.0721875000002" y1="245.0" y2="245.0" stroke="#1967d2" stroke-width="1" /><line x1="30.0" x2="759.0721875000002" y1="295.0" y2="295.0" stroke="#1967d2" stroke-width="1" /><line x1="30.0" x2="759.0721875000002" y1="345.0" y2="345.0" stroke="#1967d2" stroke-width="1" /><line x1="337.6284375" x2="480.2059375" y1="5.0" y2="5.0" stroke="black" stroke-width="1" /><line x1="337.6284375" x2="480.2059375" y1="385.0" y2="385.0" stroke="black" stroke-width="1" /><line x1="211.3396875" x2="327.6284375" y1="5.0" y2="5.0" stroke="black" stroke-width="1" /><line x1="211.3396875" x2="327.6284375" y1="385.0" y2="385.0" stroke="black" stroke-width="1" /><line x1="181.3396875" x2="181.3396875" y1="95.0" y2="145.0" stroke="black" stroke-width="3" /><line x1="181.3396875" x2="181.3396875" y1="195.0" y2="245.0" stroke="black" stroke-width="3" /><line x1="181.3396875" x2="181.3396875" y1="295.0" y2="345.0" stroke="black" stroke-width="3" /><line x1="244.4840625" x2="244.4840625" y1="45.0" y2="195.0" stroke="black" stroke-width="3" /><line x1="297.6284375" x2="297.6284375" y1="145.0" y2="295.0" stroke="black" stroke-width="3" /><line x1="370.77281250000004" x2="370.77281250000004" y1="245.0" y2="345.0" stroke="black" stroke-width="3" /><line x1="370.77281250000004" x2="370.77281250000004" y1="45.0" y2="95.0" stroke="black" stroke-width="3" /><line x1="533.3503125" x2="533.3503125" y1="145.0" y2="195.0" stroke="black" stroke-width="3" /><line x1="619.6390625" x2="619.6390625" y1="245.0" y2="295.0" stroke="black" stroke-width="3" /><line x1="337.6284375" x2="337.6284375" y1="5.0" y2="15.0" stroke="black" stroke-width="3" /><line x1="480.2059375" x2="480.2059375" y1="5.0" y2="15.0" stroke="black" stroke-width="3" /><line x1="337.6284375" x2="337.6284375" y1="375.0" y2="385.0" stroke="black" stroke-width="3" /><line x1="480.2059375" x2="480.2059375" y1="375.0" y2="385.0" stroke="black" stroke-width="3" /><line x1="211.3396875" x2="211.3396875" y1="5.0" y2="15.0" stroke="black" stroke-width="3" /><line x1="327.6284375" x2="327.6284375" y1="5.0" y2="15.0" stroke="black" stroke-width="3" /><line x1="211.3396875" x2="211.3396875" y1="375.0" y2="385.0" stroke="black" stroke-width="3" /><line x1="327.6284375" x2="327.6284375" y1="375.0" y2="385.0" stroke="black" stroke-width="3" /><rect x="10.0" y="25.0" width="40" height="40" stroke="black" fill="white" stroke-width="0" /><text x="30.0" y="45.0" dominant-baseline="middle" text-anchor="middle" font-size="14px" font-family="sans\-serif:style=normal:variant=normal:weight=normal:stretch=normal:size=10.0">0: </text><rect x="10.0" y="75.0" width="40" height="40" stroke="black" fill="white" stroke-width="0" /><text x="30.0" y="95.0" dominant-baseline="middle" text-anchor="middle" font-size="14px" font-family="sans\-serif:style=normal:variant=normal:weight=normal:stretch=normal:size=10.0">1: </text><rect x="10.0" y="125.0" width="40" height="40" stroke="black" fill="white" stroke-width="0" /><text x="30.0" y="145.0" dominant-baseline="middle" text-anchor="middle" font-size="14px" font-family="sans\-serif:style=normal:variant=normal:weight=normal:stretch=normal:size=10.0">2: </text><rect x="10.0" y="175.0" width="40" height="40" stroke="black" fill="white" stroke-width="0" /><text x="30.0" y="195.0" dominant-baseline="middle" text-anchor="middle" font-size="14px" font-family="sans\-serif:style=normal:variant=normal:weight=normal:stretch=normal:size=10.0">3: </text><rect x="10.0" y="225.0" width="40" height="40" stroke="black" fill="white" stroke-width="0" /><text x="30.0" y="245.0" dominant-baseline="middle" text-anchor="middle" font-size="14px" font-family="sans\-serif:style=normal:variant=normal:weight=normal:stretch=normal:size=10.0">4: </text><rect x="10.0" y="275.0" width="40" height="40" stroke="black" fill="white" stroke-width="0" /><text x="30.0" y="295.0" dominant-baseline="middle" text-anchor="middle" font-size="14px" font-family="sans\-serif:style=normal:variant=normal:weight=normal:stretch=normal:size=10.0">5: </text><rect x="10.0" y="325.0" width="40" height="40" stroke="black" fill="white" stroke-width="0" /><text x="30.0" y="345.0" dominant-baseline="middle" text-anchor="middle" font-size="14px" font-family="sans\-serif:style=normal:variant=normal:weight=normal:stretch=normal:size=10.0">6: </text><rect x="70.0" y="25.0" width="71.3396875" height="40" stroke="black" fill="white" stroke-width="1" /><text x="105.66984375" y="45.0" dominant-baseline="middle" text-anchor="middle" font-size="14px" font-family="sans\-serif:style=normal:variant=normal:weight=normal:stretch=normal:size=10.0">Ry(-0.5π)</text><rect x="70.0" y="75.0" width="71.3396875" height="40" stroke="black" fill="white" stroke-width="1" /><text x="105.66984375" y="95.0" dominant-baseline="middle" text-anchor="middle" font-size="14px" font-family="sans\-serif:style=normal:variant=normal:weight=normal:stretch=normal:size=10.0">Ry(-0.5π)</text><rect x="70.0" y="125.0" width="71.3396875" height="40" stroke="black" fill="white" stroke-width="1" /><text x="105.66984375" y="145.0" dominant-baseline="middle" text-anchor="middle" font-size="14px" font-family="sans\-serif:style=normal:variant=normal:weight=normal:stretch=normal:size=10.0">Ry(-0.5π)</text><rect x="70.0" y="175.0" width="71.3396875" height="40" stroke="black" fill="white" stroke-width="1" /><text x="105.66984375" y="195.0" dominant-baseline="middle" text-anchor="middle" font-size="14px" font-family="sans\-serif:style=normal:variant=normal:weight=normal:stretch=normal:size=10.0">Ry(-0.5π)</text><rect x="70.0" y="225.0" width="71.3396875" height="40" stroke="black" fill="white" stroke-width="1" /><text x="105.66984375" y="245.0" dominant-baseline="middle" text-anchor="middle" font-size="14px" font-family="sans\-serif:style=normal:variant=normal:weight=normal:stretch=normal:size=10.0">Ry(-0.5π)</text><rect x="70.0" y="275.0" width="71.3396875" height="40" stroke="black" fill="white" stroke-width="1" /><text x="105.66984375" y="295.0" dominant-baseline="middle" text-anchor="middle" font-size="14px" font-family="sans\-serif:style=normal:variant=normal:weight=normal:stretch=normal:size=10.0">Ry(-0.5π)</text><circle cx="181.3396875" cy="95.0" r="10.0" /><circle cx="181.3396875" cy="145.0" r="10.0" /><circle cx="181.3396875" cy="195.0" r="10.0" /><circle cx="181.3396875" cy="245.0" r="10.0" /><circle cx="181.3396875" cy="295.0" r="10.0" /><circle cx="181.3396875" cy="345.0" r="10.0" /><rect x="211.3396875" y="325.0" width="66.28875000000001" height="40" stroke="black" fill="white" stroke-width="1" /><text x="244.4840625" y="345.0" dominant-baseline="middle" text-anchor="middle" font-size="14px" font-family="sans\-serif:style=normal:variant=normal:weight=normal:stretch=normal:size=10.0">Ry(0.5π)</text><circle cx="244.4840625" cy="45.0" r="10.0" /><circle cx="244.4840625" cy="195.0" r="10.0" /><circle cx="297.6284375" cy="145.0" r="10.0" /><circle cx="297.6284375" cy="295.0" r="10.0" /><circle cx="370.77281250000004" cy="245.0" r="10.0" /><circle cx="370.77281250000004" cy="345.0" r="10.0" /><rect x="337.6284375" y="125.0" width="66.28875000000001" height="40" stroke="black" fill="white" stroke-width="1" /><text x="370.77281250000004" y="145.0" dominant-baseline="middle" text-anchor="middle" font-size="14px" font-family="sans\-serif:style=normal:variant=normal:weight=normal:stretch=normal:size=10.0">Ry(0.5π)</text><rect x="337.6284375" y="175.0" width="66.28875000000001" height="40" stroke="black" fill="white" stroke-width="1" /><text x="370.77281250000004" y="195.0" dominant-baseline="middle" text-anchor="middle" font-size="14px" font-family="sans\-serif:style=normal:variant=normal:weight=normal:stretch=normal:size=10.0">Ry(0.5π)</text><rect x="403.9171875" y="275.0" width="66.28875000000001" height="40" stroke="black" fill="white" stroke-width="1" /><text x="437.06156250000004" y="295.0" dominant-baseline="middle" text-anchor="middle" font-size="14px" font-family="sans\-serif:style=normal:variant=normal:weight=normal:stretch=normal:size=10.0">Ry(0.5π)</text><circle cx="370.77281250000004" cy="45.0" r="10.0" /><circle cx="370.77281250000004" cy="95.0" r="10.0" /><rect x="500.20593749999995" y="225.0" width="66.28875000000001" height="40" stroke="black" fill="white" stroke-width="1" /><text x="533.3503125" y="245.0" dominant-baseline="middle" text-anchor="middle" font-size="14px" font-family="sans\-serif:style=normal:variant=normal:weight=normal:stretch=normal:size=10.0">Ry(0.5π)</text><rect x="500.20593749999995" y="325.0" width="66.28875000000001" height="40" stroke="black" fill="white" stroke-width="1" /><text x="533.3503125" y="345.0" dominant-baseline="middle" text-anchor="middle" font-size="14px" font-family="sans\-serif:style=normal:variant=normal:weight=normal:stretch=normal:size=10.0">Ry(0.5π)</text><circle cx="533.3503125" cy="145.0" r="10.0" /><circle cx="533.3503125" cy="195.0" r="10.0" /><rect x="500.20593749999995" y="75.0" width="66.28875000000001" height="40" stroke="black" fill="white" stroke-width="1" /><text x="533.3503125" y="95.0" dominant-baseline="middle" text-anchor="middle" font-size="14px" font-family="sans\-serif:style=normal:variant=normal:weight=normal:stretch=normal:size=10.0">Ry(0.5π)</text><circle cx="619.6390625" cy="245.0" r="10.0" /><circle cx="619.6390625" cy="295.0" r="10.0" /><rect x="586.4946875" y="125.0" width="66.28875000000001" height="40" stroke="black" fill="white" stroke-width="1" /><text x="619.6390625" y="145.0" dominant-baseline="middle" text-anchor="middle" font-size="14px" font-family="sans\-serif:style=normal:variant=normal:weight=normal:stretch=normal:size=10.0">Ry(0.5π)</text><rect x="672.7834375000001" y="225.0" width="66.28875000000001" height="40" stroke="black" fill="white" stroke-width="1" /><text x="705.9278125000001" y="245.0" dominant-baseline="middle" text-anchor="middle" font-size="14px" font-family="sans\-serif:style=normal:variant=normal:weight=normal:stretch=normal:size=10.0">Ry(0.5π)</text></svg>